<svg width="36" height="36" viewBox="0 0 36 36" fill="none" xmlns="http://www.w3.org/2000/svg">
<g clip-path="url(#clip0_59_110)">
<path d="M18 0C27.9255 0 36 8.0745 36 18C36 27.9255 27.9255 36 18 36C8.0745 36 0 27.9255 0 18C0 8.0745 8.0745 0 18 0ZM25.5 32.6955V27.75C25.5 26.5095 24.4905 25.5 23.25 25.5H12.75C11.5095 25.5 10.5 26.5095 10.5 27.75V32.6955C12.7515 33.849 15.3015 34.5 18 34.5C20.6985 34.5 23.2485 33.849 25.5 32.6955ZM9 31.8225V27.75C9 25.6815 10.683 24 12.75 24H23.25C25.317 24 27 25.6815 27 27.75V31.8225C31.512 28.875 34.5 23.7795 34.5 18C34.5 8.9025 27.0975 1.5 18 1.5C8.9025 1.5 1.5 8.9025 1.5 18C1.5 23.7795 4.488 28.875 9 31.8225ZM18 9C21.309 9 24 11.691 24 15C24 18.309 21.309 21 18 21C14.691 21 12 18.309 12 15C12 11.691 14.691 9 18 9ZM18 19.5C20.481 19.5 22.5 17.481 22.5 15C22.5 12.519 20.481 10.5 18 10.5C15.519 10.5 13.5 12.519 13.5 15C13.5 17.481 15.519 19.5 18 19.5Z" fill="#F96211"/>
</g>
<defs>
<clipPath id="clip0_59_110">
<rect width="36" height="36" fill="white" transform="matrix(-1 0 0 1 36 0)"/>
</clipPath>
</defs>
</svg>
