<svg width="36" height="36" viewBox="0 0 36 36" fill="none" xmlns="http://www.w3.org/2000/svg">
<g clip-path="url(#clip0_60_115)">
<path d="M27 1.5H9V0H27V1.5ZM31.5 7.5H4.5V9H31.5V7.5ZM36 26.25C36 31.626 31.626 36 26.25 36C20.874 36 16.5 31.626 16.5 26.25C16.5 20.874 20.874 16.5 26.25 16.5C31.626 16.5 36 20.874 36 26.25ZM34.5 26.25C34.5 21.702 30.7995 18 26.25 18C21.7005 18 18 21.702 18 26.25C18 30.798 21.7005 34.5 26.25 34.5C30.7995 34.5 34.5 30.798 34.5 26.25ZM27 21.75H25.5V25.5H21.75V27H25.5V30.75H27V27H30.75V25.5H27V21.75ZM1.5 34.5V18.75C1.5 17.5095 2.5095 16.5 3.75 16.5H18.042C18.723 15.927 19.4625 15.423 20.253 15H3.75C1.683 15 0 16.6815 0 18.75V36H18.042C17.499 35.5425 16.998 35.04 16.5375 34.5H1.5Z" fill="black"/>
</g>
<defs>
<clipPath id="clip0_60_115">
<rect width="36" height="36" fill="white"/>
</clipPath>
</defs>
</svg>
