<svg width="36" height="36" viewBox="0 0 36 36" fill="none" xmlns="http://www.w3.org/2000/svg">
<path d="M30.0494 20.058C29.7359 19.3905 29.3759 18.7005 28.9844 17.988C28.5599 17.22 28.3394 16.3035 28.3454 15.3375C28.3544 13.596 28.2419 11.829 28.0094 10.086C27.3809 5.352 22.9229 1.5 18.0749 1.5H17.9204C13.0724 1.5 8.61439 5.3505 7.98589 10.086C7.7534 11.8305 7.6409 13.596 7.64989 15.3375C7.6544 16.305 7.43389 17.2215 7.0109 17.988C6.6209 18.6975 6.2639 19.386 5.9489 20.0505C5.2589 21.5115 5.2019 23.1435 5.7914 24.6465C6.3809 26.151 7.5314 27.3135 9.03139 27.918C10.2404 28.4055 11.4929 28.7865 13.2209 29.022C13.1924 29.2365 13.1774 29.454 13.1774 29.6715C13.1774 32.334 15.3404 34.5015 17.9984 34.5015C20.6564 34.5015 22.8194 32.3355 22.8194 29.6715C22.8194 29.454 22.8044 29.238 22.7759 29.0265C24.5219 28.791 25.7759 28.41 26.9789 27.921C28.4744 27.3135 29.6204 26.1525 30.2069 24.6495C30.7934 23.148 30.7364 21.519 30.0479 20.0595L30.0494 20.058ZM21.3209 29.67C21.3209 31.506 19.8314 33 17.9999 33C16.1684 33 14.6789 31.506 14.6789 29.67C14.6789 29.5035 14.6924 29.34 14.7164 29.178C15.6644 29.2515 16.7429 29.289 17.9984 29.289C19.2539 29.289 20.3369 29.2515 21.2849 29.1795C21.3089 29.34 21.3209 29.505 21.3209 29.67ZM28.8119 24.1035C28.3769 25.218 27.5264 26.079 26.4179 26.529C24.5024 27.3075 22.4264 27.789 17.9984 27.789C13.6079 27.789 11.5274 27.306 9.59389 26.526C8.47939 26.0775 7.6259 25.215 7.1894 24.099C6.7529 22.9845 6.7949 21.774 7.3079 20.691C7.6094 20.0535 7.9514 19.3935 8.3264 18.7125C8.8724 17.721 9.15739 16.5525 9.15139 15.33C9.14239 13.6575 9.25039 11.9595 9.4739 10.284C9.99889 6.336 13.8674 3.0015 17.9219 3.0015H18.0764C22.1309 3.0015 25.9994 6.3375 26.5244 10.284C26.7479 11.9595 26.8559 13.6575 26.8469 15.33C26.8409 16.5525 27.1259 17.7225 27.6719 18.7125C28.0469 19.395 28.3919 20.058 28.6949 20.6985C29.2064 21.7815 29.2469 22.9905 28.8119 24.1035Z" fill="#FF8400"/>
</svg>
