<svg width="20" height="20" viewBox="0 0 20 20" fill="none" xmlns="http://www.w3.org/2000/svg">
<path d="M17.2052 16.7282L11.31 10.833L17.2052 4.93782C17.5983 4.5448 17.5983 4.02079 17.2052 3.62777C16.8122 3.23476 16.2882 3.23476 15.8952 3.62777L10 9.52296L4.1048 3.62777C3.71179 3.23476 3.18777 3.23476 2.79476 3.62777C2.40175 4.02079 2.40175 4.5448 2.79476 4.93782L8.68996 10.833L2.79476 16.7282C2.40175 17.1212 2.40175 17.6452 2.79476 18.0382C3.18777 18.4312 3.71179 18.4312 4.1048 18.0382L10 12.143L15.8952 18.0382C16.2882 18.4312 16.8122 18.4312 17.2052 18.0382C17.5983 17.6452 17.5983 17.1212 17.2052 16.7282Z" fill="black"/>
</svg>
