<svg width="36" height="36" viewBox="0 0 36 36" fill="none" xmlns="http://www.w3.org/2000/svg">
<g clip-path="url(#clip0_42_91)">
<path d="M35.1135 21.1365C36.2925 22.317 36.2925 24.2385 35.1135 25.419L25.5435 34.4595C24.5175 35.4855 23.166 35.997 21.8115 35.997C20.4525 35.997 19.092 35.481 18.054 34.4445C17.052 33.4425 16.5 32.1105 16.5 30.693C16.5 29.2755 17.052 27.9435 18.054 26.9415L26.484 18.9555C26.7855 18.669 27.2595 18.6825 27.5445 18.984C27.828 19.284 27.816 19.7595 27.5145 20.0445L19.0995 28.0155C18.3945 28.7205 18 29.676 18 30.693C18 31.71 18.396 32.6655 19.1145 33.384C20.601 34.8705 23.0145 34.8675 24.498 33.384L34.068 24.3435C34.6485 23.763 34.6485 22.7925 34.053 22.197C33.4755 21.6195 32.4675 21.621 31.8915 22.197L22.3215 31.2375C22.02 31.5225 21.5445 31.5075 21.261 31.2075C20.9775 30.906 20.9895 30.432 21.291 30.147L30.846 21.12C31.9575 20.0055 33.9675 19.989 35.115 21.135L35.1135 21.1365ZM36 6.75V17.25C36 17.664 35.664 18 35.25 18C34.836 18 34.5 17.664 34.5 17.25V6.75C34.5 6.0345 34.3545 5.3535 34.0935 4.731L22.8015 16.023C21.525 17.2995 19.8315 18 18.0285 18C18.0045 18 17.9835 18 17.9625 18C16.167 18 14.4735 17.2995 13.197 16.023L1.9065 4.731C1.6455 5.3535 1.5 6.0345 1.5 6.75V21.75C1.5 24.645 3.855 27 6.75 27H12.75C13.164 27 13.5 27.336 13.5 27.75C13.5 28.164 13.164 28.5 12.75 28.5H6.75C3.0285 28.5 0 25.4715 0 21.75V6.75C0 3.0285 3.0285 0 6.75 0H29.25C32.9715 0 36 3.0285 36 6.75ZM33.279 3.4245C32.3145 2.259 30.8775 1.5 29.25 1.5H6.75C5.124 1.5 3.6855 2.259 2.721 3.4245L14.2575 14.9625C15.2565 15.96 16.5525 16.536 17.9955 16.5H18.021C19.4295 16.5 20.7465 15.954 21.7395 14.9625L33.276 3.4245H33.279Z" fill="#FF8400"/>
</g>
<defs>
<clipPath id="clip0_42_91">
<rect width="36" height="36" fill="white"/>
</clipPath>
</defs>
</svg>
