<svg width="30" height="30" viewBox="0 0 30 30" fill="none" xmlns="http://www.w3.org/2000/svg">
<g clip-path="url(#clip0_45_6)">
<path d="M26.25 2.53247H22.5V0.0324707H20V2.53247H10V0.0324707H7.5V2.53247H3.75C1.6825 2.53247 0 4.21497 0 6.28247V30.0325H30V6.28247C30 4.21497 28.3175 2.53247 26.25 2.53247ZM3.75 5.03247H26.25C26.9387 5.03247 27.5 5.59372 27.5 6.28247V10.0325H2.5V6.28247C2.5 5.59372 3.06125 5.03247 3.75 5.03247ZM2.5 27.5325V12.5325H27.5V27.5325H2.5ZM21.025 19.1962L18.0163 21.425L19.1625 24.9487L18.0588 25.7025L15.0112 23.6362L11.9375 25.7187L10.915 24.9287L12.0025 21.3875L9.05375 19.245L9.25625 18.1537H13.1337L14.245 14.2775H15.7037L16.8838 18.1537H20.7413L21.0238 19.1975L21.025 19.1962Z" fill="#4A14D4"/>
</g>
<defs>
<clipPath id="clip0_45_6">
<rect width="30" height="30" fill="white"/>
</clipPath>
</defs>
</svg>
