<svg width="22" height="22" viewBox="0 0 22 22" fill="none" xmlns="http://www.w3.org/2000/svg">
<g clip-path="url(#clip0_272_1075)">
<path d="M11 0C8.82441 0 6.69767 0.645139 4.88873 1.85383C3.07979 3.06253 1.66989 4.7805 0.83733 6.79048C0.00476615 8.80047 -0.213071 11.0122 0.211367 13.146C0.635804 15.2798 1.68345 17.2398 3.22183 18.7782C4.76021 20.3166 6.72022 21.3642 8.85401 21.7886C10.9878 22.2131 13.1995 21.9952 15.2095 21.1627C17.2195 20.3301 18.9375 18.9202 20.1462 17.1113C21.3549 15.3023 22 13.1756 22 11C22 8.08262 20.8411 5.28473 18.7782 3.22183C16.7153 1.15893 13.9174 0 11 0ZM15.3148 14.0186L14.0186 15.3148L11 12.2962L7.98142 15.3148L6.68526 14.0186L9.70384 11L6.68526 7.98142L7.98142 6.68525L11 9.70383L14.0186 6.68525L15.3148 7.98142L12.2962 11L15.3148 14.0186Z" fill="#7A7D9A"/>
</g>
<defs>
<clipPath id="clip0_272_1075">
<rect width="22" height="22" fill="white"/>
</clipPath>
</defs>
</svg>
