<svg width="20" height="20" viewBox="0 0 20 20" fill="none" xmlns="http://www.w3.org/2000/svg">
<g clip-path="url(#clip0_196_1119)">
<path d="M15.3334 0.833333V2H14.6667V0.833333C14.6667 0.744927 14.7019 0.660142 14.7644 0.597631C14.8269 0.535119 14.9117 0.5 15.0001 0.5C15.0885 0.5 15.1733 0.535119 15.2358 0.597631C15.2983 0.660143 15.3334 0.744927 15.3334 0.833333Z" fill="#FF9800" stroke="#FF9800"/>
<path d="M5.33341 0.833333V2H4.66675V0.833333C4.66675 0.744928 4.70187 0.660143 4.76438 0.597631C4.82689 0.535119 4.91168 0.5 5.00008 0.5C5.08849 0.5 5.17327 0.535119 5.23578 0.597631C5.2983 0.660143 5.33341 0.744928 5.33341 0.833333Z" fill="#FF9800" stroke="#FF9800"/>
<path d="M18.8333 7.50064V7.00064H18.3333H1.66667H1.16667V7.50064V16.6673C1.16667 17.021 1.30714 17.3601 1.55719 17.6101C1.80724 17.8602 2.14638 18.0007 2.5 18.0007H17.5C17.8536 18.0007 18.1928 17.8602 18.4428 17.6101C18.6929 17.3601 18.8333 17.0209 18.8333 16.6673V7.50064ZM1.08579 18.0815C0.710714 17.7065 0.5 17.1978 0.5 16.6673V5.83398C0.5 5.30354 0.710714 4.79484 1.08579 4.41976C1.46086 4.04469 1.96957 3.83398 2.5 3.83398H17.5C18.0304 3.83398 18.5391 4.04469 18.9142 4.41976C19.2893 4.79484 19.5 5.30354 19.5 5.83398V16.6673C19.5 17.1978 19.2893 17.7065 18.9142 18.0815C18.5391 18.4566 18.0304 18.6673 17.5 18.6673H2.5C1.96957 18.6673 1.46086 18.4566 1.08579 18.0815Z" fill="#FF9800"/>
<path d="M1.08579 18.0815L0.732233 18.4351M1.08579 18.0815C0.710714 17.7065 0.5 17.1978 0.5 16.6673V5.83398C0.5 5.30354 0.710714 4.79484 1.08579 4.41976C1.46086 4.04469 1.96957 3.83398 2.5 3.83398H17.5C18.0304 3.83398 18.5391 4.04469 18.9142 4.41976C19.2893 4.79484 19.5 5.30354 19.5 5.83398V16.6673C19.5 17.1978 19.2893 17.7065 18.9142 18.0815C18.5391 18.4566 18.0304 18.6673 17.5 18.6673H2.5C1.96957 18.6673 1.46086 18.4566 1.08579 18.0815ZM18.8333 7.50064V7.00064H18.3333H1.66667H1.16667V7.50064V16.6673C1.16667 17.021 1.30714 17.3601 1.55719 17.6101C1.80724 17.8602 2.14638 18.0007 2.5 18.0007H17.5C17.8536 18.0007 18.1928 17.8602 18.4428 17.6101C18.6929 17.3601 18.8333 17.0209 18.8333 16.6673V7.50064Z" stroke="#FF9800"/>
<path d="M3.33325 9.16602H6.66659V11.666H3.33325V9.16602Z" fill="#FF9800"/>
<path d="M8.33325 9.16602H11.6666V11.666H8.33325V9.16602Z" fill="#FF9800"/>
<path d="M3.33325 13.334H6.66659V15.834H3.33325V13.334Z" fill="#FF9800"/>
<path d="M8.33325 13.334H11.6666V15.834H8.33325V13.334Z" fill="#FF9800"/>
<path d="M13.3333 9.16602H16.6666V11.666H13.3333V9.16602Z" fill="#FF9800"/>
</g>
<defs>
<clipPath id="clip0_196_1119">
<rect width="20" height="20" fill="white"/>
</clipPath>
</defs>
</svg>
