<svg width="36" height="36" viewBox="0 0 36 36" fill="none" xmlns="http://www.w3.org/2000/svg">
<g clip-path="url(#clip0_136_950)">
<path d="M26.25 16.5C20.874 16.5 16.5 20.874 16.5 26.25C16.5 31.626 20.874 36 26.25 36C31.626 36 36 31.626 36 26.25C36 20.874 31.626 16.5 26.25 16.5ZM26.25 34.5C21.702 34.5 18 30.7995 18 26.25C18 21.7005 21.702 18 26.25 18C30.798 18 34.5 21.7005 34.5 26.25C34.5 30.7995 30.798 34.5 26.25 34.5ZM31.275 24.2145C31.563 24.513 31.5555 24.987 31.257 25.275L27.2025 29.196C26.6625 29.7285 25.95 29.997 25.236 29.997C24.522 29.997 23.811 29.7315 23.268 29.199L21.222 27.1815C20.928 26.8905 20.925 26.415 21.216 26.121C21.507 25.8255 21.9825 25.8225 22.2765 26.1135L24.3195 28.1295C24.822 28.6245 25.647 28.623 26.1525 28.1235L30.213 24.198C30.51 23.9115 30.9885 23.9175 31.2735 24.216L31.275 24.2145ZM21.75 12H6.75C6.336 12 6 11.664 6 11.25C6 10.836 6.336 10.5 6.75 10.5H21.75C22.164 10.5 22.5 10.836 22.5 11.25C22.5 11.664 22.164 12 21.75 12ZM16.5 35.25C16.5 35.664 16.164 36 15.75 36H6C2.691 36 0 33.309 0 30V9C0 6.213 1.9185 3.8835 4.5 3.213V0.75C4.5 0.336 4.836 0 5.25 0C5.664 0 6 0.336 6 0.75V3H10.5V0.75C10.5 0.336 10.836 0 11.25 0C11.664 0 12 0.336 12 0.75V3H16.5V0.75C16.5 0.336 16.836 0 17.25 0C17.664 0 18 0.336 18 0.75V3H22.5V0.75C22.5 0.336 22.836 0 23.25 0C23.664 0 24 0.336 24 0.75V3.213C26.5815 3.8835 28.5 6.213 28.5 9V12.75C28.5 13.164 28.164 13.5 27.75 13.5C27.336 13.5 27 13.164 27 12.75V9C27 6.519 24.981 4.5 22.5 4.5H6C3.519 4.5 1.5 6.519 1.5 9V30C1.5 32.481 3.519 34.5 6 34.5H15.75C16.164 34.5 16.5 34.836 16.5 35.25ZM16.5 18H6.75C6.336 18 6 17.664 6 17.25C6 16.836 6.336 16.5 6.75 16.5H16.5C16.914 16.5 17.25 16.836 17.25 17.25C17.25 17.664 16.914 18 16.5 18ZM12.75 22.5C13.164 22.5 13.5 22.836 13.5 23.25C13.5 23.664 13.164 24 12.75 24H6.75C6.336 24 6 23.664 6 23.25C6 22.836 6.336 22.5 6.75 22.5H12.75Z" fill="#F96211"/>
</g>
<defs>
<clipPath id="clip0_136_950">
<rect width="36" height="36" fill="white"/>
</clipPath>
</defs>
</svg>
