<svg width="30" height="30" viewBox="0 0 30 30" fill="none" xmlns="http://www.w3.org/2000/svg">
<g clip-path="url(#clip0_45_9)">
<path d="M11.265 17.8607L11.9725 18.4233C13.5037 19.6408 15.265 21.4609 15.9537 23.7497H6.54875C7.24 21.4646 9.00875 19.6471 10.545 18.4308L11.265 17.8607ZM30 14.9994C30 19.142 26.6425 22.4997 22.5 22.4997C18.3575 22.4997 15 19.142 15 14.9994C15 10.8567 18.3575 7.49906 22.5 7.49906C26.6425 7.49906 30 10.8567 30 14.9994ZM26.5088 17.2407L23.75 14.4819V9.99917H21.25V15.5169L24.7412 19.0083L26.5088 17.2407ZM18.625 24.2173C18.7062 24.7073 18.75 25.2148 18.75 25.7386V26.2498H3.75V25.7386C3.75 21.5071 6.60125 18.3633 8.99375 16.4707L10.8525 15.0006L8.99375 13.5306C6.60125 11.638 3.75 8.49286 3.75 4.26143C3.75 3.97892 3.98 3.75016 4.26125 3.75016H18.2388C18.5212 3.75016 18.75 3.97892 18.75 4.26143C18.75 4.7852 18.705 5.29147 18.625 5.78274C19.8037 5.28522 21.0975 5.00896 22.4525 5.00271C22.4662 4.7552 22.5 4.51644 22.5 4.26143C22.5 1.91133 20.5887 6.12422e-07 18.2388 6.12422e-07H4.26125C1.91125 -0.00124944 0 1.91133 0 4.26143C0 8.95412 2.43125 12.5355 4.9825 15.0006C2.43125 17.4645 0 21.0446 0 25.7386V30H22.5V25.7386C22.5 25.4836 22.4662 25.2461 22.4525 24.9973C21.0963 24.991 19.8025 24.7148 18.625 24.2173Z" fill="#3DB541"/>
</g>
<defs>
<clipPath id="clip0_45_9">
<rect width="30" height="30" fill="white"/>
</clipPath>
</defs>
</svg>
