<svg width="65" height="66" viewBox="0 0 65 66" fill="none" xmlns="http://www.w3.org/2000/svg">
<path opacity="0.2" d="M32.5 60C47.964 60 60.5 47.464 60.5 32C60.5 16.536 47.964 4 32.5 4C17.036 4 4.5 16.536 4.5 32C4.5 47.464 17.036 60 32.5 60Z" fill="#9F9DB0"/>
<g filter="url(#filter0_d_147_5278)">
<path fill-rule="evenodd" clip-rule="evenodd" d="M38.4142 6H17.049C14.5367 6 12.5 8.03667 12.5 10.549V53.451C12.5 55.9633 14.5367 58 17.049 58H46.951C49.4633 58 51.5 55.9633 51.5 53.451V19.1892L38.4142 6Z" fill="#F8F8FA"/>
</g>
<path d="M25.0202 49.333H17.798C17.0002 49.333 16.3535 49.9797 16.3535 50.7774V50.7775C16.3535 51.5752 17.0002 52.2219 17.798 52.2219H25.0202C25.8179 52.2219 26.4646 51.5752 26.4646 50.7775V50.7774C26.4646 49.9797 25.8179 49.333 25.0202 49.333Z" fill="#EFEFF1"/>
<path d="M38.5029 6L45.0029 12.5L51.5029 19H43.0519C40.5396 19 38.5029 16.9633 38.5029 14.451V6Z" fill="#D1D0D9"/>
<path d="M34.1684 11.7773H17.798C17.0002 11.7773 16.3535 12.424 16.3535 13.2218V13.2218C16.3535 14.0195 17.0002 14.6662 17.798 14.6662H34.1684C34.9661 14.6662 35.6128 14.0195 35.6128 13.2218C35.6128 12.424 34.9661 11.7773 34.1684 11.7773Z" fill="#EFEFF1"/>
<path d="M25.0202 17.5557H17.798C17.0002 17.5557 16.3535 18.2024 16.3535 19.0001V19.0001C16.3535 19.7979 17.0002 20.4446 17.798 20.4446H25.0202C25.8179 20.4446 26.4646 19.7979 26.4646 19.0001V19.0001C26.4646 18.2024 25.8179 17.5557 25.0202 17.5557Z" fill="#EFEFF1"/>
<path fill-rule="evenodd" clip-rule="evenodd" d="M39.8353 22.7939C31.8831 22.7939 25.4365 29.2404 25.4365 37.1926C25.4365 45.1448 31.8831 51.5914 39.8353 51.5914C43.0908 51.5914 46.0956 50.5101 48.5076 48.6877L57.0279 57.2081C57.8074 57.9876 59.0713 57.9876 59.8508 57.2081C60.6303 56.4286 60.6303 55.1648 59.8508 54.3852L51.3304 45.8649C53.1527 43.4529 54.234 40.4481 54.234 37.1926C54.234 29.2404 47.7875 22.7939 39.8353 22.7939ZM29.4286 37.1926C29.4286 31.4452 34.0879 26.786 39.8353 26.786C45.5827 26.786 50.2419 31.4452 50.2419 37.1926C50.2419 40.038 49.1011 42.6152 47.25 44.4947C47.2305 44.5127 47.2114 44.5311 47.1926 44.5499C47.1737 44.5687 47.1553 44.5879 47.1374 44.6073C45.2579 46.4584 42.6806 47.5993 39.8353 47.5993C34.0879 47.5993 29.4286 42.94 29.4286 37.1926Z" fill="#9F9DB0"/>
<path fill-rule="evenodd" clip-rule="evenodd" d="M44.6386 32.924C45.1076 33.393 45.1076 34.1534 44.6386 34.6224L37.1927 42.0682C36.7237 42.5372 35.9633 42.5372 35.4943 42.0682C35.0253 41.5992 35.0253 40.8389 35.4943 40.3699L42.9402 32.924C43.4092 32.455 44.1696 32.455 44.6386 32.924Z" fill="#9F9DB0"/>
<path fill-rule="evenodd" clip-rule="evenodd" d="M35.4962 32.924C35.0272 33.393 35.0272 34.1534 35.4962 34.6224L42.9421 42.0682C43.411 42.5372 44.1714 42.5372 44.6404 42.0682C45.1094 41.5992 45.1094 40.8389 44.6404 40.3699L37.1946 32.924C36.7256 32.455 35.9652 32.455 35.4962 32.924Z" fill="#9F9DB0"/>
<defs>
<filter id="filter0_d_147_5278" x="8.5" y="6" width="47" height="60" filterUnits="userSpaceOnUse" color-interpolation-filters="sRGB">
<feFlood flood-opacity="0" result="BackgroundImageFix"/>
<feColorMatrix in="SourceAlpha" type="matrix" values="0 0 0 0 0 0 0 0 0 0 0 0 0 0 0 0 0 0 127 0" result="hardAlpha"/>
<feOffset dy="4"/>
<feGaussianBlur stdDeviation="2"/>
<feColorMatrix type="matrix" values="0 0 0 0 0 0 0 0 0 0 0 0 0 0 0 0 0 0 0.05 0"/>
<feBlend mode="normal" in2="BackgroundImageFix" result="effect1_dropShadow_147_5278"/>
<feBlend mode="normal" in="SourceGraphic" in2="effect1_dropShadow_147_5278" result="shape"/>
</filter>
</defs>
</svg>
