<svg width="24" height="24" viewBox="0 0 24 24" fill="" xmlns="http://www.w3.org/2000/svg">
<g clip-path="url(#clip0_124_1374)">
<path d="M19.5 0H4.5C2.019 0 0 2.019 0 4.5V19.5C0 21.981 2.019 24 4.5 24H19.5C21.981 24 24 21.981 24 19.5V4.5C24 2.019 21.981 0 19.5 0ZM23 19.5C23 21.43 21.43 23 19.5 23H4.5C2.57 23 1 21.43 1 19.5V4.5C1 2.57 2.57 1 4.5 1H19.5C21.43 1 23 2.57 23 4.5V19.5ZM16.503 5C15.835 5 15.206 5.26 14.735 5.731L6.317 14.146C5.466 14.997 4.998 16.126 4.998 17.329V17.999C4.998 18.55 5.447 18.999 5.998 18.999H6.67C7.872 18.999 9.002 18.531 9.852 17.682L18.263 9.273C19.232 8.392 19.233 6.61 18.271 5.731C17.799 5.259 17.171 5 16.503 5ZM9.145 16.975C8.484 17.636 7.605 17.999 6.67 17.999H5.998V17.329C5.998 16.394 6.362 15.515 7.024 14.853L13.336 8.543L15.458 10.664L9.145 16.975ZM17.563 8.559L16.165 9.957L14.043 7.836L15.442 6.438C16.006 5.855 17.005 5.857 17.571 6.446C18.138 6.965 18.135 8.039 17.563 8.559Z"/>
</g>
<defs>
<clipPath id="clip0_124_1374">
<rect width="24" height="24" fill=""/>
</clipPath>
</defs>
</svg>
