<svg width="22" height="22" viewBox="0 0 22 22" fill="none" xmlns="http://www.w3.org/2000/svg">
<g clip-path="url(#clip0_160_1190)">
<path d="M14.3981 13.1019L12.2962 11L14.3981 8.89808C14.7565 8.53967 14.7565 7.96033 14.3981 7.60192C14.2193 7.42317 13.9847 7.33333 13.75 7.33333C13.5153 7.33333 13.2807 7.42317 13.1019 7.60192L11 9.70383L8.89808 7.60192C8.71933 7.42317 8.48467 7.33333 8.25 7.33333C8.01533 7.33333 7.78067 7.42317 7.60192 7.60192C7.2435 7.96033 7.2435 8.53967 7.60192 8.89808L9.70383 11L7.60192 13.1019C7.2435 13.4603 7.2435 14.0397 7.60192 14.3981C7.96033 14.7565 8.53967 14.7565 8.89808 14.3981L11 12.2962L13.1019 14.3981C13.4603 14.7565 14.0397 14.7565 14.3981 14.3981C14.7565 14.0397 14.7565 13.4603 14.3981 13.1019ZM22 11C22 4.93442 17.0656 0 11 0C4.93442 0 0 4.93442 0 11C0 17.0656 4.93442 22 11 22C17.0656 22 22 17.0656 22 11ZM20.1667 11C20.1667 16.0545 16.0545 20.1667 11 20.1667C5.9455 20.1667 1.83333 16.0545 1.83333 11C1.83333 5.9455 5.9455 1.83333 11 1.83333C16.0545 1.83333 20.1667 5.9455 20.1667 11Z" fill="#FA5343"/>
</g>
<defs>
<clipPath id="clip0_160_1190">
<rect width="22" height="22" fill="white" transform="matrix(1 0 0 -1 0 22)"/>
</clipPath>
</defs>
</svg>
