<svg width="36" height="36" viewBox="0 0 36 36" fill="none" xmlns="http://www.w3.org/2000/svg">
<g clip-path="url(#clip0_29_16)">
<path d="M21.75 26.9985H14.25C13.0095 26.9985 12 25.989 12 24.7485V17.2485C12 16.008 13.0095 14.9985 14.25 14.9985H21.75C22.9905 14.9985 24 16.008 24 17.2485V24.7485C24 25.989 22.9905 26.9985 21.75 26.9985ZM14.25 16.4985C13.8375 16.4985 13.5 16.836 13.5 17.2485V24.7485C13.5 25.161 13.8375 25.4985 14.25 25.4985H21.75C22.1625 25.4985 22.5 25.161 22.5 24.7485V17.2485C22.5 16.836 22.1625 16.4985 21.75 16.4985H14.25ZM29.25 35.9985H6.75C3.0285 35.9985 0 32.97 0 29.2485V14.34C0 12.0945 1.1115 10.002 2.9745 8.74654L14.2245 1.15505C16.515 -0.394455 19.482 -0.394455 21.7755 1.15505L33.024 8.74654C34.887 10.0035 35.9985 12.0945 35.9985 14.34V29.2485C35.9985 32.97 32.9715 35.9985 29.25 35.9985ZM18 1.49255C16.977 1.49255 15.9555 1.79404 15.0645 2.39705L3.813 9.98705C2.364 10.965 1.5 12.591 1.5 14.3385V29.247C1.5 32.142 3.855 34.497 6.75 34.497H29.25C32.145 34.497 34.5 32.142 34.5 29.247V14.34C34.5 12.5925 33.636 10.9665 32.187 9.98855L20.937 2.39705C20.0445 1.79554 19.023 1.49255 18 1.49255Z" fill="#FF8400"/>
</g>
<defs>
<clipPath id="clip0_29_16">
<rect width="36" height="36" fill="white"/>
</clipPath>
</defs>
</svg>
