<svg width="36" height="36" viewBox="0 0 36 36" fill="none" xmlns="http://www.w3.org/2000/svg">
<g clip-path="url(#clip0_136_946)">
<path d="M21.75 26.9988H14.25C13.0095 26.9988 12 25.9893 12 24.7488V17.2488C12 16.0083 13.0095 14.9988 14.25 14.9988H21.75C22.9905 14.9988 24 16.0083 24 17.2488V24.7488C24 25.9893 22.9905 26.9988 21.75 26.9988ZM14.25 16.4988C13.8375 16.4988 13.5 16.8363 13.5 17.2488V24.7488C13.5 25.1613 13.8375 25.4988 14.25 25.4988H21.75C22.1625 25.4988 22.5 25.1613 22.5 24.7488V17.2488C22.5 16.8363 22.1625 16.4988 21.75 16.4988H14.25ZM29.25 35.9988H6.75C3.0285 35.9988 0 32.9703 0 29.2488V14.3403C0 12.0948 1.1115 10.0023 2.9745 8.74679L14.2245 1.15529C16.515 -0.394211 19.482 -0.394211 21.7755 1.15529L33.024 8.74679C34.887 10.0038 35.9985 12.0948 35.9985 14.3403V29.2488C35.9985 32.9703 32.9715 35.9988 29.25 35.9988ZM18 1.49279C16.977 1.49279 15.9555 1.79429 15.0645 2.39729L3.813 9.98729C2.364 10.9653 1.5 12.5913 1.5 14.3388V29.2473C1.5 32.1423 3.855 34.4973 6.75 34.4973H29.25C32.145 34.4973 34.5 32.1423 34.5 29.2473V14.3403C34.5 12.5928 33.636 10.9668 32.187 9.98879L20.937 2.39729C20.0445 1.79579 19.023 1.49279 18 1.49279Z" fill="black"/>
</g>
<defs>
<clipPath id="clip0_136_946">
<rect width="36" height="36" fill="white"/>
</clipPath>
</defs>
</svg>
