<svg width="46" height="46" viewBox="0 0 46 46" fill="none" xmlns="http://www.w3.org/2000/svg">
<path d="M45.8906 32.2882L22.9999 46.023L0.109131 32.2882L10.9651 25.7754L13.798 28.545L7.55921 32.2882L23.0018 41.5534L38.4444 32.2882L32.2037 28.545L35.0365 25.7754L45.8945 32.2901L45.8906 32.2882ZM13.5277 22.9195C8.28371 17.6736 8.28371 9.1617 13.5124 3.93112C16.0462 1.39729 19.4176 0.00195312 22.9999 0.00195312C26.5821 0.00195312 29.9535 1.39729 32.4855 3.93112C35.0193 6.46495 36.4165 9.83445 36.4165 13.4186C36.4165 17.0028 35.0193 20.3704 32.4855 22.9061L22.9999 32.1847L13.5277 22.9195ZM16.2225 20.194L22.9999 26.8219L29.7906 20.1787C31.5865 18.3828 32.5832 15.9774 32.5832 13.4167C32.5832 10.856 31.5846 8.45062 29.7753 6.63937C27.966 4.82812 25.5605 3.83337 22.9999 3.83337C20.4392 3.83337 18.0319 4.83004 16.2225 6.63937C12.487 10.3769 12.487 16.4565 16.2225 20.1921V20.194ZM22.9999 19.1495C26.1758 19.1495 28.7499 16.5754 28.7499 13.3995C28.7499 10.2235 26.1758 7.64945 22.9999 7.64945C19.824 7.64945 17.2499 10.2235 17.2499 13.3995C17.2499 16.5754 19.824 19.1495 22.9999 19.1495Z" fill="black"/>
</svg>
