<svg width="47" height="47" viewBox="0 0 47 47" fill="none" xmlns="http://www.w3.org/2000/svg">
<g clip-path="url(#clip0_29_12)">
<path d="M46.8883 32.9903L23.4999 47.0237L0.111572 32.9903L11.2036 26.3359L14.098 29.1657L7.72361 32.9903L23.5019 42.4569L39.2802 32.9903L32.9039 29.1657L35.7983 26.3359L46.8922 32.9923L46.8883 32.9903ZM13.8219 23.418C8.46386 18.058 8.46386 9.36107 13.8062 4.01678C16.3951 1.42786 19.8398 0.00219727 23.4999 0.00219727C27.1601 0.00219727 30.6048 1.42786 33.1917 4.01678C35.7807 6.6057 37.2083 10.0484 37.2083 13.7105C37.2083 17.3726 35.7807 20.8134 33.1917 23.4043L23.4999 32.8846L13.8219 23.418ZM16.5753 20.6332L23.4999 27.4052L30.4383 20.6176C32.2733 18.7826 33.2916 16.3249 33.2916 13.7086C33.2916 11.0922 32.2713 8.63453 30.4227 6.78391C28.574 4.93328 26.1163 3.91691 23.4999 3.91691C20.8836 3.91691 18.4239 4.93524 16.5753 6.78391C12.7585 10.6027 12.7585 16.8145 16.5753 20.6313V20.6332ZM23.4999 19.5659C26.7449 19.5659 29.3749 16.9359 29.3749 13.6909C29.3749 10.446 26.7449 7.81595 23.4999 7.81595C20.255 7.81595 17.6249 10.446 17.6249 13.6909C17.6249 16.9359 20.255 19.5659 23.4999 19.5659Z" fill="#FF8400"/>
</g>
<defs>
<clipPath id="clip0_29_12">
<rect width="47" height="47" fill="white"/>
</clipPath>
</defs>
</svg>
