<svg width="24" height="25" viewBox="0 0 24 25" fill="none" xmlns="http://www.w3.org/2000/svg">
<g clip-path="url(#clip0_335_1075)">
<path d="M19 8.775V7.29167C19 5.3578 18.2625 3.50313 16.9497 2.13568C15.637 0.768227 13.8565 0 12 0C10.1435 0 8.36301 0.768227 7.05025 2.13568C5.7375 3.50313 5 5.3578 5 7.29167V8.775C4.10936 9.1799 3.35129 9.84638 2.8185 10.6929C2.28571 11.5395 2.00128 12.5294 2 13.5417V19.7917C2.00159 21.1725 2.52888 22.4963 3.46622 23.4727C4.40356 24.4491 5.67441 24.9983 7 25H17C18.3256 24.9983 19.5964 24.4491 20.5338 23.4727C21.4711 22.4963 21.9984 21.1725 22 19.7917V13.5417C21.9987 12.5294 21.7143 11.5395 21.1815 10.6929C20.6487 9.84638 19.8906 9.1799 19 8.775ZM7 7.29167C7 5.91033 7.52678 4.58557 8.46447 3.60882C9.40215 2.63207 10.6739 2.08333 12 2.08333C13.3261 2.08333 14.5979 2.63207 15.5355 3.60882C16.4732 4.58557 17 5.91033 17 7.29167V8.33333H7V7.29167ZM20 19.7917C20 20.6205 19.6839 21.4153 19.1213 22.0014C18.5587 22.5874 17.7957 22.9167 17 22.9167H7C6.20435 22.9167 5.44129 22.5874 4.87868 22.0014C4.31607 21.4153 4 20.6205 4 19.7917V13.5417C4 12.7129 4.31607 11.918 4.87868 11.332C5.44129 10.7459 6.20435 10.4167 7 10.4167H17C17.7957 10.4167 18.5587 10.7459 19.1213 11.332C19.6839 11.918 20 12.7129 20 13.5417V19.7917Z" fill="black"/>
<path d="M12 14.5834C11.7348 14.5834 11.4804 14.6931 11.2929 14.8885C11.1054 15.0838 11 15.3488 11 15.625V17.7084C11 17.9846 11.1054 18.2496 11.2929 18.4449C11.4804 18.6403 11.7348 18.75 12 18.75C12.2652 18.75 12.5196 18.6403 12.7071 18.4449C12.8946 18.2496 13 17.9846 13 17.7084V15.625C13 15.3488 12.8946 15.0838 12.7071 14.8885C12.5196 14.6931 12.2652 14.5834 12 14.5834Z" fill="black"/>
</g>
<defs>
<clipPath id="clip0_335_1075">
<rect width="24" height="25" fill="white"/>
</clipPath>
</defs>
</svg>
