<svg width="30" height="30" viewBox="0 0 30 30" fill="none" xmlns="http://www.w3.org/2000/svg">
<g clip-path="url(#clip0_42_81)">
<path d="M11.1841 3.75C11.1841 1.67875 12.8928 0 15.0016 0C17.1103 0 18.6841 1.67875 18.6841 3.75C18.6841 5.82125 17.1091 7.5 15.0016 7.5C12.8941 7.5 11.1841 5.82125 11.1841 3.75ZM29.7966 21.3088C29.4191 21.8863 28.6453 22.0487 28.0666 21.6712L23.0666 18.4025C22.9128 18.3013 22.7828 18.1675 22.6853 18.0112L20.9041 15.11C20.6516 14.6988 20.3453 14.3287 20.0003 14.0037V22.9562L26.3241 25.9275C27.3616 26.515 27.7516 27.6225 27.3391 28.6613C27.0091 29.4938 26.1491 30 25.2528 30H13.7503C13.0603 30 12.5003 29.44 12.5003 28.75C12.5003 28.06 13.0603 27.5 13.7503 27.5H18.1928C19.5291 27.5 19.9328 25.6862 18.7241 25.1187C18.5578 25.0412 18.3766 25 18.1928 25H13.7503C11.6691 25.035 10.0003 26.6688 10.0003 28.75C10.0003 30 8.75032 30 8.75032 30H4.76157C3.86157 30 2.99282 29.4963 2.66032 28.66C2.24907 27.6213 2.64782 26.51 3.58782 25.9737L10.0003 22.9562V14.1912C9.68157 14.5237 9.39907 14.8975 9.16907 15.31L7.34282 18.5888C7.24407 18.765 7.10407 18.9163 6.93532 19.0262L1.93533 22.295C1.72408 22.4325 1.48658 22.4988 1.25283 22.4988C0.845325 22.4988 0.445325 22.3 0.205325 21.9325C-0.172175 21.355 -0.00967464 20.58 0.567825 20.2025L5.31032 17.1025L6.98657 14.0938C8.39407 11.5662 11.0603 9.99875 13.9541 9.99875H16.2416C19.0128 9.99875 21.5866 11.4375 23.0366 13.8L24.6716 16.4613L29.4366 19.5775C30.0141 19.955 30.1766 20.73 29.7991 21.3075L29.7966 21.3088Z" fill="#FF8400"/>
</g>
<defs>
<clipPath id="clip0_42_81">
<rect width="30" height="30" fill="white"/>
</clipPath>
</defs>
</svg>
