<svg width="24" height="24" viewBox="0 0 24 24" fill="none" xmlns="http://www.w3.org/2000/svg">
<g clip-path="url(#clip0_155_1134)">
<path d="M22.243 5.272L18.728 1.757C17.594 0.624 16.087 0 14.485 0H9.51402C7.91202 0 6.40502 0.624 5.27102 1.757L1.75602 5.272C0.623024 6.406 -0.000976562 7.913 -0.000976562 9.515V14.486C-0.000976562 16.088 0.623024 17.595 1.75602 18.729L5.27102 22.244C6.40502 23.377 7.91202 24.001 9.51402 24.001H14.485C16.087 24.001 17.594 23.377 18.728 22.244L22.243 18.729C23.376 17.595 24 16.088 24 14.486V9.515C24 7.913 23.376 6.406 22.243 5.272ZM22 14.485C22 15.553 21.584 16.558 20.829 17.314L17.314 20.828C16.558 21.584 15.554 22 14.485 22H9.51402C8.44602 22 7.44102 21.584 6.68502 20.829L3.17102 17.314C2.41502 16.558 1.99902 15.554 1.99902 14.485V9.514C1.99902 8.446 2.41502 7.441 3.17002 6.685L6.68502 3.171C7.44102 2.415 8.44502 1.999 9.51402 1.999H14.485C15.553 1.999 16.558 2.415 17.314 3.17L20.828 6.685C21.584 7.441 22 8.445 22 9.514V14.485ZM18 12C18 12.552 17.552 13 17 13H13V17C13 17.552 12.552 18 12 18C11.448 18 11 17.552 11 17V13H7.00002C6.44802 13 6.00002 12.552 6.00002 12C6.00002 11.448 6.44802 11 7.00002 11H11V7C11 6.448 11.448 6 12 6C12.552 6 13 6.448 13 7V11H17C17.552 11 18 11.448 18 12Z" fill="#21E25E"/>
</g>
<defs>
<clipPath id="clip0_155_1134">
<rect width="24" height="24" fill="white"/>
</clipPath>
</defs>
</svg>
