<svg width="24" height="24" viewBox="0 0 24 24" fill="none" xmlns="http://www.w3.org/2000/svg">
<g clip-path="url(#clip0_161_1298)">
<path d="M23 17.091V23L20.47 20.47C18.238 22.698 15.203 24 12 24C5.383 24 0 18.617 0 12H3C3 16.962 7.037 21 12 21C14.402 21 16.678 20.023 18.352 18.352L16 16H21.909C22.511 16 23 16.488 23 17.091ZM2.091 8H8L5.648 5.648C7.323 3.977 9.598 3 12 3C16.963 3 21 7.038 21 12H24C24 5.383 18.617 0 12 0C8.797 0 5.763 1.302 3.53 3.53L1 1V6.909C1 7.512 1.488 8 2.091 8Z" fill="#FF8400"/>
</g>
<defs>
<clipPath id="clip0_161_1298">
<rect width="24" height="24" fill="white"/>
</clipPath>
</defs>
</svg>
