<svg width="36" height="36" viewBox="0 0 36 36" fill="none" xmlns="http://www.w3.org/2000/svg">
<g clip-path="url(#clip0_42_89)">
<path d="M33 16.5H26.25C24.5955 16.5 23.25 17.8455 23.25 19.5V21.4035C22.809 21.147 22.296 21 21.75 21H14.25C12.5955 21 11.25 22.3455 11.25 24V25.9035C10.809 25.647 10.296 25.5 9.75 25.5H3C1.3455 25.5 0 26.8455 0 28.5V36H36V19.5C36 17.8455 34.6545 16.5 33 16.5ZM12.75 24C12.75 23.1735 13.422 22.5 14.25 22.5H21.75C22.578 22.5 23.25 23.1735 23.25 24V34.5H12.75V24ZM1.5 28.5C1.5 27.6735 2.172 27 3 27H9.75C10.578 27 11.25 27.6735 11.25 28.5V34.5H1.5V28.5ZM34.5 34.5H24.75V19.5C24.75 18.6735 25.422 18 26.25 18H33C33.828 18 34.5 18.6735 34.5 19.5V34.5ZM13.731 16.0005L14.6655 16.7115L18 14.55L21.3075 16.7115L22.269 15.9885L21.2085 12.4425L24 10.1925V9.00004H19.9755L18.5565 5.06104H17.4045L16.023 9.00004H11.9985V10.1925L14.79 12.4425L13.7295 16.0005H13.731ZM14.772 10.5H17.088L18 7.89753L18.912 10.5H21.228L19.482 11.907L20.1555 14.16L18 12.762L15.843 14.16L16.5165 11.907L14.772 10.5ZM1.731 20.5005L2.6655 21.2115L6 19.05L9.3075 21.2115L10.269 20.4885L9.2085 16.9425L12 14.6925V13.5H7.9755L6.5565 9.56104H5.4045L4.023 13.5H0V14.6925L2.7915 16.9425L1.731 20.5005ZM2.772 15H5.088L6 12.3975L6.912 15H9.228L7.482 16.407L8.1555 18.66L6 17.262L3.843 18.66L4.5165 16.407L2.7705 15H2.772ZM31.9755 4.50004L30.5565 0.561035H29.4045L28.023 4.50004H23.9985V5.69254L26.79 7.94254L25.7295 11.5005L26.664 12.2115L29.9985 10.05L33.306 12.2115L34.2675 11.4885L33.207 7.94254L35.9985 5.69254V4.50004H31.9755ZM31.482 7.40704L32.1555 9.66004L30 8.26203L27.843 9.66004L28.5165 7.40704L26.7705 6.00004H29.0865L29.9985 3.39754L30.9105 6.00004H33.2265L31.4805 7.40704H31.482Z" fill="#FF8400"/>
</g>
<defs>
<clipPath id="clip0_42_89">
<rect width="36" height="36" fill="white"/>
</clipPath>
</defs>
</svg>
