<svg width="18" height="18" viewBox="0 0 18 18" fill="none" xmlns="http://www.w3.org/2000/svg">
<path d="M5.92313 1.29461C5.66159 1.49187 5.53851 1.72612 5.53851 2.03434V2.46585H3.80005C2.6462 2.46585 2.00005 2.51516 1.87697 2.61379C1.61543 2.82338 1.6462 3.29187 1.93851 3.37818C2.07697 3.41516 5.38466 3.45215 9.30774 3.45215C15.5847 3.45215 16.4616 3.42749 16.677 3.25489C16.9847 3.02064 16.9847 2.89735 16.677 2.66311C16.4924 2.50283 16.077 2.46585 14.677 2.46585H12.9231V2.03434C12.9231 1.72612 12.8 1.49187 12.5385 1.29461C12.1693 0.986395 12.1385 0.986395 9.23082 0.986395C6.32313 0.986395 6.29236 0.986395 5.92313 1.29461ZM11.8462 2.15763V2.46585H9.23082H6.61543V2.15763V1.84941H9.23082H11.8462V2.15763Z" fill="#FA5343"/>
<path d="M2.75392 4.24107C2.72315 4.27806 2.877 6.8671 3.09238 10.0109C3.53854 16.2616 3.53854 16.2986 4.50777 16.7671C4.96931 17.0013 5.30777 17.0137 9.23084 17.0137C13.1539 17.0137 13.4924 17.0013 13.9539 16.7671C14.9232 16.2986 14.9385 16.2493 15.3847 10.0479C15.6001 6.92874 15.7693 4.3397 15.7385 4.27806C15.677 4.19175 2.877 4.15477 2.75392 4.24107ZM14.5385 6.00408C14.4924 6.53422 14.3539 8.45751 14.2308 10.2945C13.8924 15.4356 13.8616 15.6452 13.5232 15.9164C13.2462 16.1383 12.9539 16.1507 9.29238 16.1507C7.04623 16.1507 5.24623 16.1013 5.09238 16.0274C4.93854 15.9657 4.7693 15.8178 4.70777 15.7192C4.66161 15.6082 4.477 13.5986 4.32315 11.2438C4.15392 8.88901 3.96931 6.53422 3.92315 6.00408L3.84623 5.05477H9.23084H14.6308L14.5385 6.00408Z" fill="#FA5343"/>
<path d="M6.23085 7.02741C6.16931 7.11371 6.16931 8.72878 6.23085 10.6151C6.32315 13.3767 6.38469 14.1041 6.56931 14.2397C6.84623 14.474 7.00008 14.474 7.277 14.2521C7.50777 14.0671 7.49238 12.9082 7.26162 8.69179L7.15392 6.96576L6.73854 6.92878C6.52315 6.90412 6.29238 6.95343 6.23085 7.02741Z" fill="#FA5343"/>
<path d="M8.80009 7.05184C8.66163 7.16279 8.61548 8.12444 8.61548 10.6148C8.61548 13.5614 8.64625 14.0669 8.86163 14.2272C9.15394 14.4738 9.30779 14.4738 9.60009 14.2272C9.81548 14.0669 9.84625 13.5614 9.84625 10.6148C9.84625 7.10115 9.81548 6.90389 9.23086 6.90389C9.0924 6.90389 8.90779 6.96553 8.80009 7.05184Z" fill="#FA5343"/>
<path d="M11.3077 7.05178C11.2154 7.2737 10.9539 13.9559 11.0308 14.1408C11.2154 14.523 11.9539 14.4244 12.077 14.0052C12.1231 13.8696 12.1693 12.2175 12.1847 10.3559L12.2308 6.96548L11.8 6.92849C11.5539 6.90383 11.3539 6.95315 11.3077 7.05178Z" fill="#FA5343"/>
</svg>
