<svg width="24" height="24" viewBox="0 0 24 24" fill="none" xmlns="http://www.w3.org/2000/svg">
<path fill-rule="evenodd" clip-rule="evenodd" d="M15.6458 15.6462C15.9854 15.3067 16.536 15.3067 16.8756 15.6462L21.7451 20.5158C22.0847 20.8554 22.0847 21.406 21.7451 21.7456C21.4055 22.0851 20.855 22.0851 20.5154 21.7456L15.6458 16.876C15.3062 16.5364 15.3062 15.9858 15.6458 15.6462Z" fill="#D1D2D2"/>
<path fill-rule="evenodd" clip-rule="evenodd" d="M10.6957 3.73913C6.85367 3.73913 3.73913 6.85367 3.73913 10.6957C3.73913 14.5376 6.85367 17.6522 10.6957 17.6522C14.5376 17.6522 17.6522 14.5376 17.6522 10.6957C17.6522 6.85367 14.5376 3.73913 10.6957 3.73913ZM2 10.6957C2 5.89318 5.89318 2 10.6957 2C15.4981 2 19.3913 5.89318 19.3913 10.6957C19.3913 15.4981 15.4981 19.3913 10.6957 19.3913C5.89318 19.3913 2 15.4981 2 10.6957Z" fill="#D1D2D2"/>
</svg>
