<svg width="22" height="23" viewBox="0 0 22 23" fill="none" xmlns="http://www.w3.org/2000/svg">
<g clip-path="url(#clip0_49_134)">
<path d="M14.9398 8.48503L16.2268 9.79128L10.9166 15.0227C10.5618 15.3774 10.0953 15.5544 9.62683 15.5544C9.15842 15.5544 8.68725 15.3756 8.32883 15.0181L5.77867 12.5468L7.05558 11.2295L9.61583 13.7109L14.9398 8.48503ZM22 11.8877C22 17.9533 17.0656 22.8877 11 22.8877C4.93442 22.8877 0 17.9533 0 11.8877C0 5.82211 4.93442 0.887695 11 0.887695C17.0656 0.887695 22 5.82211 22 11.8877ZM20.1667 11.8877C20.1667 6.8332 16.0545 2.72103 11 2.72103C5.9455 2.72103 1.83333 6.8332 1.83333 11.8877C1.83333 16.9422 5.9455 21.0544 11 21.0544C16.0545 21.0544 20.1667 16.9422 20.1667 11.8877Z" fill="#007B17"/>
</g>
<defs>
<clipPath id="clip0_49_134">
<rect width="22" height="22" fill="white" transform="translate(0 0.887695)"/>
</clipPath>
</defs>
</svg>
