<svg width="14" height="14" viewBox="0 0 14 14" fill="none" xmlns="http://www.w3.org/2000/svg">
<path d="M0.874919 3.63235H2.2895C2.40559 5.03876 3.37509 5.20968 4.1165 5.20968C4.85792 5.20968 5.82684 5.03876 5.9435 3.63235H13.1255C13.2865 3.63235 13.4172 3.50168 13.4172 3.34068C13.4172 3.17968 13.2865 3.04901 13.1255 3.04901H5.94292C5.82684 1.6426 4.85734 1.47168 4.11592 1.47168C3.3745 1.47168 2.40559 1.6426 2.28892 3.04901H0.874919C0.713919 3.04901 0.583252 3.17968 0.583252 3.34068C0.583252 3.50168 0.713919 3.63235 0.874919 3.63235ZM4.11592 2.05501C4.91042 2.05501 5.37067 2.26501 5.37067 3.34068C5.37067 4.41635 4.91042 4.62635 4.11592 4.62635C3.32142 4.62635 2.86117 4.41635 2.86117 3.34068C2.86117 2.26501 3.32142 2.05501 4.11592 2.05501Z" fill="#6D4C41"/>
<path d="M13.1249 6.70819H11.7103C11.5943 5.30178 10.6248 5.13086 9.88334 5.13086C9.14192 5.13086 8.173 5.30178 8.05634 6.70819H0.874919C0.713919 6.70819 0.583252 6.83886 0.583252 6.99986C0.583252 7.16086 0.713919 7.29153 0.874919 7.29153H8.05692C8.173 8.69794 9.1425 8.86886 9.88392 8.86886C10.6253 8.86886 11.5943 8.69794 11.7109 7.29153H13.1255C13.2865 7.29153 13.4172 7.16086 13.4172 6.99986C13.4172 6.83886 13.2859 6.70819 13.1249 6.70819ZM9.88392 8.28553C9.08942 8.28553 8.62917 8.07553 8.62917 6.99986C8.62917 5.92419 9.08942 5.71419 9.88392 5.71419C10.6784 5.71419 11.1387 5.92419 11.1387 6.99986C11.1387 8.07553 10.6784 8.28553 9.88392 8.28553Z" fill="#6D4C41"/>
<path d="M13.1249 10.3674H5.94292C5.82684 8.96096 4.85734 8.79004 4.11592 8.79004C3.3745 8.79004 2.40559 8.96096 2.28892 10.3674H0.874919C0.713919 10.3674 0.583252 10.498 0.583252 10.659C0.583252 10.82 0.713919 10.9507 0.874919 10.9507H2.2895C2.40559 12.3565 3.37567 12.5275 4.1165 12.5275C4.85734 12.5275 5.82684 12.3565 5.9435 10.9507H13.1255C13.2865 10.9507 13.4172 10.82 13.4172 10.659C13.4172 10.498 13.2859 10.3674 13.1249 10.3674ZM4.11592 11.9441C3.32142 11.9441 2.86117 11.7341 2.86117 10.659C2.86117 9.58396 3.32142 9.37337 4.11592 9.37337C4.91042 9.37337 5.37067 9.58337 5.37067 10.659C5.37067 11.7347 4.91042 11.9441 4.11592 11.9441Z" fill="#6D4C41"/>
</svg>
