<svg width="30" height="30" viewBox="0 0 30 30" fill="none" xmlns="http://www.w3.org/2000/svg">
<g clip-path="url(#clip0_45_14)">
<path d="M28.9013 1.09875C27.4388 -0.36375 25.0612 -0.36375 23.5987 1.09875L15.215 9.4825C14.27 10.4262 13.75 11.6825 13.75 13.0175V15C13.75 15.69 14.3088 16.25 15 16.25H16.9825C18.3175 16.25 19.5737 15.7288 20.5175 14.785L28.9013 6.40125C30.3563 5.005 30.3563 2.495 28.9013 1.09875ZM27.1338 4.63375L18.75 13.0175C18.2775 13.49 17.65 13.75 16.9825 13.75H16.25V13.0175C16.25 12.36 16.5175 11.715 16.9825 11.25L25.3662 2.86625C25.855 2.37875 26.645 2.37875 27.1338 2.86625C27.6188 3.33125 27.6188 4.16875 27.1338 4.63375ZM15 22.5C14.3088 22.5 13.75 21.9412 13.75 21.25C13.75 20.5588 14.3088 20 15 20H18.75C19.4412 20 20 20.5588 20 21.25C20 21.9412 19.4412 22.5 18.75 22.5H15ZM25 17.5V23.75C25 27.1963 22.1963 30 18.75 30H6.25C2.80375 30 0 27.1963 0 23.75V6.25C0 2.80375 2.80375 0 6.25 0H17.5C18.1912 0 18.75 0.56 18.75 1.25C18.75 1.94 18.1912 2.5 17.5 2.5H6.25C4.1825 2.5 2.5 4.1825 2.5 6.25V23.75C2.5 25.8175 4.1825 27.5 6.25 27.5H18.75C20.8175 27.5 22.5 25.8175 22.5 23.75V17.5C22.5 16.8088 23.0588 16.25 23.75 16.25C24.4412 16.25 25 16.8088 25 17.5ZM11.4587 14.5837L9.35 16.6925C8.81125 17.2313 8.10625 17.5025 7.39875 17.5025C6.7325 17.5025 6.06625 17.2612 5.535 16.775L4.69875 16.0513C4.1775 15.5987 4.12125 14.8088 4.5725 14.2875C5.02625 13.7638 5.815 13.7113 6.33625 14.1613L7.1975 14.9088C7.32625 15.025 7.4825 15.0237 7.58125 14.925L9.69 12.8162C10.1788 12.3275 10.9688 12.3275 11.4575 12.8162C11.9463 13.305 11.9475 14.095 11.4587 14.5837ZM11.4587 8.38375L9.35 10.4925C8.81125 11.0312 8.10625 11.3025 7.39875 11.3025C6.7325 11.3025 6.06625 11.0612 5.535 10.575L4.69875 9.85125C4.1775 9.39875 4.12125 8.60875 4.5725 8.0875C5.02625 7.565 5.815 7.51125 6.33625 7.96125L7.1975 8.70875C7.32625 8.82625 7.4825 8.82375 7.58125 8.725L9.69 6.61625C10.1788 6.1275 10.9688 6.1275 11.4575 6.61625C11.9463 7.105 11.9475 7.895 11.4587 8.38375ZM11.4587 19.0662C11.9475 19.555 11.9475 20.345 11.4587 20.8337L9.35 22.9425C8.81125 23.4813 8.10625 23.7525 7.39875 23.7525C6.7325 23.7525 6.06625 23.5112 5.535 23.025L4.69875 22.3013C4.1775 21.8487 4.12125 21.06 4.5725 20.5375C5.02625 20.0163 5.815 19.96 6.33625 20.4113L7.1975 21.1588C7.32625 21.275 7.4825 21.2738 7.58125 21.175L9.69 19.0662C10.1788 18.5775 10.97 18.5775 11.4587 19.0662Z" fill="#BC1BAF"/>
</g>
<defs>
<clipPath id="clip0_45_14">
<rect width="30" height="30" fill="white"/>
</clipPath>
</defs>
</svg>
