<svg width="24" height="24" viewBox="0 0 24 24" fill="none" xmlns="http://www.w3.org/2000/svg">
<path d="M10.9999 13V7C10.9999 6.45 11.4499 6 11.9999 6C12.5499 6 12.9999 6.45 12.9999 7V13C12.9999 13.55 12.5499 14 11.9999 14C11.4499 14 10.9999 13.55 10.9999 13ZM11.9999 15C11.1699 15 10.4999 15.67 10.4999 16.5C10.4999 17.33 11.1699 18 11.9999 18C12.8299 18 13.4999 17.33 13.4999 16.5C13.4999 15.67 12.8299 15 11.9999 15ZM23.5799 19.88C22.8799 21.23 21.4099 22 19.5699 22H4.4399C2.5899 22 1.1299 21.23 0.429904 19.88C-0.280096 18.52 -0.0800958 16.78 0.929904 15.32L8.9699 2.6C9.6799 1.58 10.7999 1 11.9999 1C13.1999 1 14.3199 1.58 14.9999 2.57L23.0799 15.34C24.0899 16.8 24.2799 18.53 23.5699 19.88H23.5799ZM21.4299 16.46C21.4299 16.46 21.4099 16.44 21.4099 16.42L13.3399 3.67C13.0499 3.26 12.5499 3 11.9999 3C11.4499 3 10.9499 3.26 10.6399 3.71L2.5899 16.42C1.9699 17.3 1.8299 18.26 2.1899 18.95C2.5399 19.63 3.3399 20 4.4299 20H19.5499C20.6399 20 21.4399 19.63 21.7899 18.95C22.1499 18.26 22.0099 17.3 21.4199 16.46H21.4299Z" fill="#FF8C00"/>
</svg>
