<svg width="36" height="36" viewBox="0 0 36 36" fill="none" xmlns="http://www.w3.org/2000/svg">
<path d="M30.144 8.0835L24.918 2.856C23.0745 1.014 20.6265 0 18.0225 0H9.75C6.0285 0 3 3.0285 3 6.75V29.25C3 32.9715 6.0285 36 9.75 36H27.75C28.6245 36 29.4765 35.835 30.282 35.5095C30.666 35.3535 30.852 34.9155 30.696 34.533C30.54 34.1475 30.1005 33.9645 29.7195 34.119C29.094 34.3725 28.4325 34.5015 27.7515 34.5015H9.75C6.855 34.5015 4.5 32.1465 4.5 29.2515V6.75C4.5 3.855 6.855 1.5 9.75 1.5H18.0225C18.525 1.5 19.017 1.557 19.5 1.644V9.75C19.5 11.817 21.1815 13.5 23.25 13.5H31.356C31.443 13.9845 31.5 14.4765 31.5 14.9775V15.75C31.5 16.164 31.836 16.5 32.25 16.5C32.664 16.5 33 16.164 33 15.75V14.9775C33 12.372 31.9845 9.924 30.144 8.0835ZM23.25 12C22.0095 12 21 10.9905 21 9.75V2.07C22.056 2.4795 23.031 3.093 23.856 3.9165L29.082 9.144C29.907 9.969 30.5205 10.9425 30.93 12H23.2485H23.25ZM18.6525 20.622L15.8655 25.5L18.6525 30.378C18.858 30.7365 18.7335 31.1955 18.372 31.4025C18.255 31.4685 18.1275 31.5 18 31.5C17.7405 31.5 17.487 31.3635 17.3475 31.122L15 27.012L12.6525 31.122C12.513 31.3635 12.2595 31.5 12 31.5C11.8725 31.5 11.745 31.4685 11.628 31.4025C11.268 31.1955 11.1435 30.738 11.3475 30.378L14.1345 25.5L11.3475 20.622C11.142 20.2635 11.2665 19.8045 11.628 19.5975C11.982 19.3965 12.444 19.515 12.6525 19.878L15 23.988L17.3475 19.878C17.5545 19.5165 18.0135 19.3965 18.372 19.5975C18.732 19.8045 18.8565 20.262 18.6525 20.622ZM27 30.75C27 31.164 26.664 31.5 26.25 31.5H22.5C21.672 31.5 21 30.828 21 30V20.25C21 19.836 21.336 19.5 21.75 19.5C22.164 19.5 22.5 19.836 22.5 20.25V30H26.25C26.664 30 27 30.336 27 30.75ZM35.961 28.5795C35.6865 30.27 34.218 31.4955 32.469 31.4955C31.152 31.4955 29.5485 30.669 28.758 29.8695C28.467 29.5755 28.47 29.1 28.764 28.809C29.0595 28.5165 29.5335 28.521 29.8245 28.815C30.4455 29.4435 31.6815 29.9955 32.469 29.9955C33.4785 29.9955 34.3245 29.298 34.482 28.3395C34.5375 27.996 34.596 26.829 33.018 26.1915C32.8515 26.1285 31.206 25.5045 30.468 25.0455C29.4615 24.336 29.0025 23.3025 29.1495 22.1715C29.3055 20.997 30.09 20.04 31.197 19.674C32.55 19.227 33.93 19.6035 35.301 20.793C35.6145 21.0645 35.6475 21.5385 35.3775 21.8505C35.106 22.164 34.6335 22.197 34.32 21.927C33.348 21.084 32.5035 20.8215 31.6665 21.0975C31.11 21.282 30.7155 21.768 30.636 22.3665C30.564 22.917 30.7755 23.409 31.23 23.7555C31.2405 23.7615 31.251 23.7675 31.26 23.772C31.779 24.096 33.0975 24.6195 33.561 24.795C35.6535 25.6395 36.1575 27.3615 35.9595 28.5795H35.961Z" fill="#FF8400"/>
</svg>
