<svg width="19" height="19" viewBox="0 0 19 19" fill="none" xmlns="http://www.w3.org/2000/svg">
<path d="M9.49991 3.95831C10.593 3.95831 11.4791 3.07221 11.4791 1.97915C11.4791 0.886098 10.593 0 9.49991 0C8.40685 0 7.52075 0.886098 7.52075 1.97915C7.52075 3.07221 8.40685 3.95831 9.49991 3.95831Z" fill="black"/>
<path d="M9.49991 11.4788C10.593 11.4788 11.4791 10.5927 11.4791 9.49966C11.4791 8.40661 10.593 7.52051 9.49991 7.52051C8.40685 7.52051 7.52075 8.40661 7.52075 9.49966C7.52075 10.5927 8.40685 11.4788 9.49991 11.4788Z" fill="black"/>
<path d="M9.49991 19.0003C10.593 19.0003 11.4791 18.1142 11.4791 17.0211C11.4791 15.9281 10.593 15.042 9.49991 15.042C8.40685 15.042 7.52075 15.9281 7.52075 17.0211C7.52075 18.1142 8.40685 19.0003 9.49991 19.0003Z" fill="black"/>
</svg>
